<svg width="124" height="124" viewBox="0 0 124 124" fill="none" xmlns="http://www.w3.org/2000/svg">
<path d="M112.322 27.436L66.7689 1.13646C64.1449 -0.37882 59.8503 -0.37882 57.2263 1.13646L11.6737 27.436C9.04925 28.9509 6.90234 32.6701 6.90234 35.7003V88.2997C7.1065 91.8287 8.909 94.7514 11.6737 96.564L57.2263 122.864C59.8503 124.379 64.1449 124.379 66.7689 122.864L112.322 96.564C115.288 94.5911 116.976 91.6215 117.093 88.2997V35.7003C116.986 32.512 115.077 29.2962 112.322 27.436ZM25.2674 62.0002C25.0516 26.1349 73.0896 10.2982 93.8056 43.6236L77.9097 52.822C68.3139 36.9505 44.4876 42.6256 43.6325 62.0002C43.8893 79.8564 67.3072 88.1511 77.9108 71.1773L93.8067 80.3753C75.5498 112.069 26.1882 100.666 25.2674 62.0002ZM98.7278 64.0405H94.6464V68.1219H90.5658V64.0405H86.4844V59.9595H90.5658V55.8785H94.6464V59.9595H98.7278V64.0405ZM114.032 64.0405H109.951V68.1219H105.87V64.0405H101.789V59.9595H105.87V55.8785H109.951V59.9595H114.032V64.0405Z" fill="#1E9CEF"/>
</svg>
