<svg width="124" height="124" viewBox="0 0 124 124" fill="none" xmlns="http://www.w3.org/2000/svg">
<path d="M11.3667 50.4267H22.94V61.69H11.3667V50.4267ZM25.575 50.4267H37.2V61.69H25.575V50.4267ZM25.575 35.96H37.2V47.2234H25.575V35.96ZM39.835 50.4267H51.4084V61.69H39.835V50.4267ZM39.835 35.96H51.4084V47.2234H39.835V35.96ZM54.0434 50.4267H65.6684V61.69H54.0434V50.4267ZM54.0434 35.96H65.6684V47.2234H54.0434V35.96ZM68.3034 50.4267H79.8767V61.69H68.3034V50.4267ZM54.0434 21.4933H65.6684V32.7567H54.0434V21.4933ZM27.5384 77.965C29.3467 77.965 30.7934 79.36 30.7934 81.1167C30.7934 82.8217 29.3467 84.2683 27.5384 84.2683C25.8334 84.2683 24.335 82.8217 24.335 81.1167C24.335 79.36 25.8334 77.965 27.5384 77.965ZM117.232 56.265L118.833 57.1434L118.007 58.745C114.7 64.9967 107.828 66.9084 101.112 66.5984C91.0367 90.9334 69.0784 102.507 42.5217 102.507C28.7784 102.507 16.1717 97.495 8.99002 85.6634L8.88669 85.4567L7.75002 83.39C5.42502 78.1717 4.59836 72.4884 5.16669 66.7534L5.32169 65.0484H81.6334C84.3717 65.0484 87.1617 64.5834 89.6934 63.7567L93.62 62C92.0184 59.9334 91.14 57.2984 90.9334 54.715C90.5717 51.2017 91.295 46.5 93.775 43.9167L95.015 42.47L96.4617 43.6067C100.13 46.5 103.178 50.4783 103.747 55.025C108.138 53.785 113.357 54.0434 117.232 56.265ZM27.59 87.0584C31 87.0584 33.5834 84.3717 33.5834 81.1167C33.5834 77.81 31 75.1234 27.5384 75.1234C24.18 75.1234 21.4417 77.81 21.4417 81.1167C21.4417 84.4234 24.18 87.0584 27.59 87.0584Z" fill="#1E9CEF"/>
</svg>
