<svg width="124" height="124" viewBox="0 0 124 124" fill="none" xmlns="http://www.w3.org/2000/svg">
<path d="M114.065 57.009L66.65 9.61775C66.0019 8.96633 65.2314 8.4494 64.3829 8.09667C63.5343 7.74394 62.6245 7.56236 61.7055 7.56236C60.7866 7.56236 59.8767 7.74394 59.0282 8.09667C58.1796 8.4494 57.4092 8.96633 56.761 9.61775L46.9185 19.4602L59.427 31.9455C60.8987 31.4444 62.4816 31.3667 63.9953 31.7212C65.509 32.0758 66.8927 32.8483 67.9888 33.9509C69.0848 35.0534 69.8492 36.4416 70.1949 37.9574C70.5405 39.4732 70.4535 41.0555 69.9438 42.5242L81.9718 54.56C83.7684 53.9435 85.7221 53.9613 87.5072 54.6104C89.2924 55.2595 90.8012 56.5007 91.7822 58.1272C92.7633 59.7538 93.1574 61.6673 92.8988 63.5491C92.6403 65.431 91.7447 67.1673 90.3613 68.469C88.9779 69.7706 87.1903 70.5589 85.2962 70.7025C83.4021 70.8461 81.5161 70.3363 79.9523 69.2581C78.3885 68.1799 77.2413 66.5983 76.702 64.777C76.1628 62.9557 76.2639 61.0046 76.9885 59.2487L65.7743 48.05V77.5775C67.4672 78.4305 68.8171 79.8373 69.5995 81.5639C70.382 83.2906 70.5498 85.233 70.0751 87.0683C69.6005 88.9036 68.5119 90.5211 66.9904 91.6518C65.4689 92.7826 63.6062 93.3585 61.712 93.2837C59.8179 93.209 58.0063 92.4881 56.5787 91.241C55.151 89.9939 54.1933 88.2956 53.8647 86.4287C53.5361 84.5617 53.8565 82.6385 54.7726 80.9789C55.6886 79.3193 57.1452 78.0232 58.9 77.3063V47.5075C57.8854 47.0906 56.9633 46.4773 56.1865 45.7029C55.4097 44.9284 54.7937 44.0081 54.3738 42.9947C53.954 41.9814 53.7385 40.8951 53.7399 39.7982C53.7412 38.7013 53.9594 37.6155 54.3818 36.6032L42.1135 24.2962L9.61777 56.7842C8.96635 57.4324 8.44942 58.2029 8.09669 59.0514C7.74396 59.8999 7.56238 60.8098 7.56238 61.7287C7.56238 62.6477 7.74396 63.5576 8.09669 64.4061C8.44942 65.2546 8.96635 66.0251 9.61777 66.6732L57.009 114.065C57.6572 114.716 58.4276 115.233 59.2762 115.586C60.1247 115.938 61.0346 116.12 61.9535 116.12C62.8725 116.12 63.7823 115.938 64.6309 115.586C65.4794 115.233 66.2499 114.716 66.898 114.065L114.065 66.898C114.716 66.2499 115.233 65.4794 115.586 64.6308C115.938 63.7823 116.12 62.8724 116.12 61.9535C116.12 61.0346 115.938 60.1247 115.586 59.2762C115.233 58.4276 114.716 57.6571 114.065 57.009Z" fill="#FF8400"/>
</svg>
