<svg width="124" height="124" viewBox="0 0 124 124" fill="none" xmlns="http://www.w3.org/2000/svg">
<path d="M15.5 15.5H108.5V108.5H15.5V15.5ZM39.9383 93.2067C42.005 97.5983 46.0867 101.215 53.0617 101.215C60.8117 101.215 66.1333 97.0817 66.1333 88.04V58.1767H57.35V87.8333C57.35 92.2767 55.5417 93.4133 52.7 93.4133C49.7033 93.4133 48.4633 91.3467 47.0683 88.9183L39.9383 93.2067ZM70.835 92.2767C73.4183 97.34 78.6367 101.215 86.8 101.215C95.0667 101.215 101.267 96.9267 101.267 89.0217C101.267 81.7367 97.0817 78.4817 89.6417 75.2783L87.4717 74.3483C83.7 72.7467 82.0983 71.6617 82.0983 69.0783C82.0983 66.96 83.7 65.3067 86.2833 65.3067C88.7633 65.3067 90.4167 66.3917 91.915 69.0783L98.6833 64.5833C95.8417 59.6233 91.8117 57.7117 86.2833 57.7117C78.4817 57.7117 73.47 62.6717 73.47 69.2333C73.47 76.3633 77.655 79.7217 83.9583 82.4083L86.1283 83.3383C90.1583 85.095 92.535 86.18 92.535 89.1767C92.535 91.6567 90.21 93.465 86.5933 93.465C82.305 93.465 79.825 91.2433 77.965 88.1433L70.835 92.2767Z" fill="#FFCB6B"/>
</svg>
