<svg width="124" height="124" viewBox="0 0 124 124" fill="none" xmlns="http://www.w3.org/2000/svg">
<path d="M86.304 45.4398L86.2645 45.4231C86.2421 45.4144 86.2193 45.4063 86.1995 45.3864C86.1671 45.3516 86.1431 45.3098 86.1294 45.2642C86.1157 45.2187 86.1127 45.1707 86.1205 45.1238L88.3031 31.7798L98.5383 42.0179L87.8936 46.5467C87.864 46.5585 87.8323 46.5642 87.8004 46.5634H87.7581C87.7441 46.5547 87.7295 46.5439 87.7016 46.5154C87.3055 46.0743 86.8318 45.7098 86.304 45.4398ZM101.15 44.6266L112.094 55.5706C114.367 57.8463 115.505 58.9815 115.92 60.2971C115.982 60.492 116.033 60.6868 116.073 60.8873L89.9183 49.8106C89.9042 49.8049 89.8901 49.7993 89.876 49.7939C89.7715 49.7516 89.6501 49.7036 89.6501 49.5962C89.6501 49.489 89.7743 49.4381 89.8788 49.3958L89.9127 49.3819L101.15 44.6266ZM115.626 64.3997C115.062 65.4613 113.96 66.5625 112.097 68.4287L99.758 80.7646L83.7995 77.4414L83.7148 77.4246C83.5736 77.4023 83.424 77.3766 83.424 77.2496C83.3635 76.5912 83.168 75.9523 82.8498 75.3728C82.5316 74.7932 82.0976 74.2853 81.5746 73.8808C81.5097 73.8159 81.5266 73.7142 81.5461 73.6211C81.5461 73.6071 81.5461 73.5925 81.5516 73.5815L84.553 55.1551L84.5645 55.093C84.5812 54.9518 84.6068 54.788 84.734 54.788C85.3771 54.708 85.998 54.5008 86.5603 54.1784C87.1225 53.856 87.6151 53.425 88.0091 52.9104C88.0348 52.8819 88.0514 52.8511 88.0854 52.8341C88.1757 52.7918 88.283 52.8341 88.3761 52.8737L115.623 64.3992L115.626 64.3997ZM96.9206 83.6023L76.6308 103.892L80.1037 82.5465L80.1093 82.5179C80.1121 82.4894 80.118 82.4615 80.126 82.4361C80.1545 82.3683 80.2277 82.3401 80.2982 82.3118L80.3321 82.2979C81.0925 81.9735 81.7651 81.4732 82.2945 80.8381C82.3622 80.7591 82.4441 80.6829 82.5486 80.6687C82.5757 80.6643 82.6034 80.6643 82.6305 80.6687L96.9175 83.6052L96.9206 83.6023ZM72.3363 108.187L70.0493 110.474L44.7647 73.9308C44.7555 73.9174 44.746 73.9042 44.7362 73.8913C44.6967 73.8376 44.6544 73.784 44.6628 73.7218C44.6656 73.6766 44.694 73.6371 44.7249 73.6032L44.7535 73.5665C44.8297 73.4536 44.8946 73.3406 44.9652 73.2192L45.0217 73.1204L45.0304 73.1117C45.0699 73.044 45.1066 72.979 45.1744 72.9423C45.2337 72.9138 45.3155 72.9255 45.3805 72.9395L73.3927 78.7163C73.4711 78.7285 73.545 78.7606 73.6073 78.8095C73.644 78.8462 73.6525 78.8858 73.661 78.9309C73.8564 79.6702 74.22 80.3543 74.7235 80.9298C75.227 81.5053 75.8568 81.9567 76.5636 82.2485C76.6426 82.2881 76.6087 82.3756 76.5722 82.4688C76.5539 82.5096 76.5398 82.5522 76.5299 82.5958C76.177 84.7417 73.1498 103.203 72.3363 108.187ZM67.5589 112.961C65.8733 114.63 64.8794 115.514 63.7555 115.869C62.6476 116.22 61.4585 116.22 60.3505 115.869C59.0347 115.452 57.8968 114.316 55.6239 112.041L30.2321 86.6488L36.8646 76.3627C36.8958 76.3119 36.9267 76.2667 36.9775 76.23C37.0481 76.1792 37.1497 76.2015 37.2344 76.23C38.7568 76.6893 40.3912 76.6064 41.8593 75.9956C41.9356 75.9671 42.0118 75.9476 42.0711 76.0012C42.1007 76.0283 42.1273 76.0586 42.1501 76.0915L67.5589 112.961ZM27.7828 84.2009L21.9579 78.376L33.4611 73.4687C33.4905 73.456 33.5222 73.4493 33.5543 73.4492C33.6503 73.4492 33.7068 73.5452 33.7576 73.6327C33.8732 73.8106 33.9956 73.9839 34.1246 74.1522L34.1614 74.1974C34.1952 74.2454 34.1728 74.2934 34.139 74.3386L27.7862 84.2012L27.7828 84.2009ZM19.38 75.7981L12.0106 68.4287C10.757 67.1751 9.84784 66.2659 9.21537 65.4838L31.6228 70.1313C31.651 70.1365 31.6792 70.1411 31.7075 70.1453C31.8459 70.1676 31.9983 70.1933 31.9983 70.3232C31.9983 70.4643 31.8317 70.5293 31.6905 70.5829L31.6256 70.6115L19.38 75.7981ZM7.92763 61.6946C7.95317 61.2199 8.03855 60.7503 8.18175 60.297C8.59963 58.9812 9.7347 57.8462 12.0106 55.5704L21.4411 46.1399C25.7832 52.4417 30.137 58.7353 34.5026 65.0208C34.5789 65.1224 34.6636 65.2353 34.576 65.3201C34.1638 65.7747 33.7515 66.2716 33.4607 66.8109C33.4292 66.8802 33.3806 66.9404 33.3196 66.9859C33.2829 67.0083 33.2433 66.9999 33.201 66.9915H33.1954L7.92763 61.6946ZM23.9652 43.6157L36.6457 30.9352C37.8372 31.4575 42.1743 33.29 46.0536 34.9277C48.9901 36.17 51.6668 37.2994 52.5081 37.6665C52.5928 37.7003 52.6691 37.7343 52.7058 37.819C52.7281 37.8698 52.7172 37.9347 52.7058 37.9884C52.505 38.9038 52.5349 39.8546 52.7927 40.7556C53.0504 41.6565 53.528 42.4793 54.1825 43.1499C54.2672 43.2346 54.1825 43.3561 54.1091 43.4605L54.0695 43.5198L41.1943 63.4624C41.1604 63.5189 41.1293 63.5669 41.0729 63.6036C41.0051 63.6459 40.9091 63.6262 40.83 63.6064C40.3293 63.4752 39.8145 63.4051 39.2969 63.3975C38.8338 63.3975 38.3312 63.4822 37.823 63.5754C37.7666 63.5841 37.7129 63.5949 37.6677 63.5614C37.6178 63.5207 37.5749 63.472 37.5407 63.4174L23.9652 43.6157ZM39.2066 28.3743L55.6227 11.9582C57.8956 9.6853 59.0336 8.54729 60.3493 8.1322C61.4572 7.78185 62.6463 7.78185 63.7543 8.1322C65.0701 8.54726 66.2079 9.68515 68.4809 11.9582L72.0384 15.5158L60.3632 33.5975C60.3343 33.6501 60.2949 33.6962 60.2475 33.733C60.1769 33.781 60.078 33.7615 59.9933 33.733C59.0728 33.4536 58.0981 33.4027 57.1535 33.5848C56.2089 33.7668 55.3228 34.1762 54.572 34.7777C54.4958 34.8567 54.3829 34.8115 54.2869 34.7693C52.7622 34.1058 40.9033 29.0944 39.2066 28.3743ZM74.5187 17.9952L85.299 28.7754L82.7013 44.8638V44.9061C82.6991 44.9428 82.6916 44.9789 82.679 45.0134C82.6505 45.0698 82.5943 45.0812 82.5379 45.0981C81.9825 45.2663 81.4594 45.5269 80.9906 45.8689C80.9704 45.8833 80.9515 45.8994 80.9341 45.917C80.9029 45.9508 80.872 45.9819 80.8212 45.9875C80.7798 45.9889 80.7386 45.9823 80.6997 45.968L64.2725 38.9884L64.2413 38.9744C64.1368 38.9321 64.0126 38.8812 64.0126 38.774C63.916 37.8585 63.6171 36.9761 63.1373 36.1905C63.0583 36.0606 62.9707 35.925 63.0385 35.7923L74.5187 17.9952ZM63.4167 42.2945L78.8163 48.8169C78.901 48.8565 78.9941 48.8932 79.0309 48.9806C79.0455 49.0333 79.0455 49.089 79.0309 49.1416C78.9857 49.3675 78.9461 49.6244 78.9461 49.8842V50.3162C78.9461 50.4235 78.836 50.4687 78.7344 50.511L78.7031 50.5225C76.2636 51.5643 44.4543 65.1284 44.4047 65.1284C44.3567 65.1284 44.3059 65.1284 44.2579 65.0804C44.1732 64.9957 44.2579 64.8771 44.3342 64.7698C44.3477 64.7512 44.3609 64.7324 44.3737 64.7133L57.0289 45.1182L57.0515 45.0844C57.1249 44.9658 57.2096 44.833 57.3451 44.833L57.4722 44.8526C57.7602 44.8921 58.0143 44.9288 58.2712 44.9288C60.1912 44.9288 61.9702 43.9942 63.0431 42.3961C63.0686 42.3535 63.1011 42.3153 63.1391 42.2832C63.2153 42.2267 63.3292 42.2545 63.4167 42.2945ZM45.7811 68.2285L80.4546 53.4418C80.4546 53.4418 80.5055 53.4418 80.5534 53.4898C80.7426 53.679 80.9036 53.806 81.0589 53.9246L81.1351 53.9726C81.2057 54.0122 81.2763 54.0574 81.2819 54.1308C81.2819 54.1593 81.2819 54.1759 81.2764 54.2014L78.306 72.447L78.2945 72.5204C78.275 72.6616 78.255 72.8225 78.1223 72.8225C77.3304 72.876 76.5635 73.1218 75.888 73.5385C75.2126 73.9552 74.6489 74.5303 74.2458 75.2141L74.2318 75.2364C74.1923 75.3013 74.1556 75.3634 74.0907 75.3974C74.0314 75.4259 73.9552 75.4141 73.893 75.4002L46.2422 69.6968C46.2137 69.6912 45.8122 68.2313 45.7811 68.2285Z" fill="#00BFA5"/>
</svg>
