<svg width="124" height="124" viewBox="0 0 124 124" fill="none" xmlns="http://www.w3.org/2000/svg">
<g clip-path="url(#clip0_133_9)">
<path d="M62.0387 124.078C60.3901 124.074 58.7719 123.633 57.35 122.799L42.377 113.809C40.145 112.546 41.2377 112.088 41.974 111.833C44.3516 111.09 46.6251 110.049 48.7397 108.732C48.9185 108.649 49.1159 108.613 49.3128 108.628C49.5097 108.643 49.6993 108.708 49.8635 108.818L61.3567 115.746C61.5707 115.863 61.8105 115.924 62.0542 115.924C62.2979 115.924 62.5378 115.863 62.7517 115.746L107.578 89.4892C107.787 89.3593 107.96 89.1778 108.079 88.9621C108.199 88.7463 108.261 88.5036 108.26 88.257V35.712C108.26 35.4615 108.197 35.2148 108.077 34.9953C107.956 34.7757 107.782 34.5903 107.57 34.4565L62.775 8.22275C62.565 8.10243 62.3272 8.03912 62.0852 8.03912C61.8432 8.03912 61.6054 8.10243 61.3955 8.22275L16.5695 34.472C16.3544 34.6016 16.1764 34.7845 16.0528 35.0032C15.9293 35.2218 15.8643 35.4686 15.8642 35.7198V88.2415C15.8635 88.4886 15.9284 88.7315 16.0523 88.9453C16.1762 89.159 16.3547 89.3361 16.5695 89.4583L28.8532 96.658C35.5182 100.037 39.5947 96.0535 39.5947 92.0545V40.1993C39.5937 40.0276 39.6266 39.8575 39.6916 39.6986C39.7566 39.5398 39.8523 39.3953 39.9733 39.2736C40.0943 39.1519 40.2382 39.0553 40.3967 38.9893C40.5552 38.9234 40.7251 38.8895 40.8967 38.8895H46.5775C46.7485 38.8905 46.9176 38.9252 47.0751 38.9916C47.2327 39.0579 47.3757 39.1547 47.4959 39.2763C47.6161 39.3979 47.7111 39.542 47.7756 39.7004C47.8401 39.8588 47.8728 40.0283 47.8717 40.1993V92.0467C48.1247 93.891 47.9636 95.7684 47.4002 97.5426C46.8368 99.3168 45.8853 100.943 44.6147 102.304C43.344 103.664 41.7863 104.724 40.0547 105.407C38.323 106.09 36.4609 106.379 34.6037 106.252C30.9575 106.316 27.3704 105.325 24.273 103.4L12.5162 96.534C11.0794 95.6775 9.8902 94.4618 9.06541 93.0066C8.24063 91.5513 7.80867 89.9065 7.81198 88.2338V35.712C7.80771 34.0401 8.23934 32.396 9.06428 30.9418C9.88922 29.4876 11.079 28.2736 12.5162 27.4195L57.35 1.1315C58.7909 0.329341 60.4128 -0.0916786 62.062 -0.0916786C63.7112 -0.0916786 65.333 0.329341 66.774 1.1315L111.6 27.4195C113.038 28.2738 114.228 29.4877 115.054 30.9417C115.88 32.3957 116.314 34.0397 116.312 35.712V88.226C116.312 89.899 115.878 91.5435 115.052 92.9984C114.226 94.4533 113.037 95.6689 111.6 96.5262L66.774 122.799C65.343 123.638 63.7134 124.08 62.0542 124.078H62.0387ZM75.888 87.8927C56.265 87.8927 52.1575 78.7477 52.1575 71.083C52.1522 70.9078 52.1826 70.7334 52.2467 70.5703C52.3108 70.4072 52.4074 70.2589 52.5306 70.1342C52.6538 70.0096 52.8011 69.9113 52.9634 69.8452C53.1257 69.7792 53.2998 69.7468 53.475 69.75H59.2487C59.5614 69.7505 59.8635 69.8636 60.0998 70.0685C60.336 70.2734 60.4906 70.5565 60.5352 70.866C61.411 76.8567 64.015 79.8793 75.8802 79.8793C85.3197 79.8793 89.342 77.7093 89.342 72.6253C89.342 69.688 88.2105 67.518 73.5242 66.0532C61.2637 64.821 53.6687 62.0698 53.6687 52.1033C53.6687 42.9195 61.2947 37.448 74.0745 37.448C88.4352 37.448 95.542 42.5088 96.441 53.3665C96.4559 53.5488 96.4333 53.7322 96.3747 53.9055C96.316 54.0788 96.2225 54.2382 96.1 54.374C95.9794 54.5074 95.8324 54.6141 95.6683 54.6875C95.5041 54.7609 95.3265 54.7993 95.1467 54.8003H89.3342C89.0387 54.7976 88.753 54.6939 88.5246 54.5064C88.2962 54.3189 88.1389 54.0588 88.0787 53.7695C86.6837 47.4688 83.2815 45.4538 74.0822 45.4538C63.767 45.4538 62.5735 49.0963 62.5735 51.832C62.5735 55.149 63.9917 56.11 77.9107 57.9778C91.6902 59.8223 98.239 62.4417 98.239 72.2687C98.239 82.0957 90.1015 87.8617 75.8957 87.8617L75.888 87.8927Z" fill="#73B923"/>
</g>
<defs>
<clipPath id="clip0_133_9">
<rect width="124" height="124" fill="white"/>
</clipPath>
</defs>
</svg>
