<svg width="124" height="124" viewBox="0 0 124 124" fill="none" xmlns="http://www.w3.org/2000/svg">
<path fill-rule="evenodd" clip-rule="evenodd" d="M97.1747 92.2973L49.5462 106.021C48.0913 106.441 46.6966 105.215 47.0026 103.785L64.0169 24.3939C64.3354 22.9093 66.4416 22.6735 67.1063 24.0484L98.61 89.2259C99.2043 90.4555 98.5269 91.9083 97.1747 92.2973ZM105.342 89.0607L68.8644 13.5911C67.9496 11.7045 66.0405 10.4581 63.8768 10.3426C61.6572 10.2166 59.6683 11.2597 58.5464 13.0349L18.9852 75.4638C17.7597 77.4095 17.7837 79.8087 19.0548 81.7309L38.3931 110.916C39.5458 112.659 41.5427 113.667 43.6182 113.667C44.2065 113.667 44.7981 113.586 45.3799 113.418L101.516 97.2436C103.235 96.7479 104.641 95.5629 105.377 93.9917C106.111 92.42 106.096 90.6218 105.342 89.0607Z" fill="#00BFA5"/>
</svg>
