<svg width="124" height="124" viewBox="0 0 124 124" fill="none" xmlns="http://www.w3.org/2000/svg">
<g clip-path="url(#clip0_133_74)">
<path d="M72.8264 61.7156C72.8264 53.2285 63.6364 47.8952 56.3241 52.1388C49.0117 56.3823 49.0117 67.0488 56.3241 71.2924C63.6364 75.5359 72.8264 70.2027 72.8264 61.7156ZM98.0164 41.3306C105.297 6.53061 89.28 -4.38989 62.0515 20.8001C36.4247 -3.22504 18.1754 4.34651 25.9411 41.185C-9.86912 51.9806 -7.4965 72.3026 26.2323 82.6829C18.5151 116.609 32.9302 128.986 62.0515 103.359C90.2992 128.695 105.291 116.832 97.5796 82.5373C134.37 70.0637 131.069 52.0084 98.0164 41.3306ZM93.0658 40.0202C87.2943 38.7183 81.7097 37.7706 76.0298 37.2536C73.0372 32.8779 69.5517 28.5069 65.5461 24.4402C87.3764 3.50062 100.243 10.0434 93.0658 40.0202ZM36.716 68.4135C38.8758 73.0243 41.7151 77.2469 43.8507 80.79C40.3732 80.4344 36.6269 79.8943 32.639 79.1884C33.9168 75.6115 35.2773 72.0196 36.716 68.4135ZM36.4247 55.8913C34.8361 52.0779 33.3865 48.3974 32.2021 44.9708C36.319 44.1174 40.3532 43.3426 43.8507 43.0779C41.2477 47.167 38.7753 51.4423 36.4247 55.8913ZM39.4825 62.298C43.0431 55.1671 46.8096 48.3984 50.9854 42.3499C58.3949 41.9238 65.7256 41.9615 72.972 42.4955C77.0362 48.1585 80.8295 54.9269 84.475 62.298C81.7469 67.9354 77.8732 74.4324 73.4089 81.3725C65.955 81.9369 58.312 81.8589 50.5486 81.3725C46.6139 75.3444 42.9186 68.9951 39.4825 62.298ZM87.2415 68.4135C88.6554 71.8444 89.962 75.3413 91.1729 78.8972C87.4357 79.6841 83.7492 80.2575 80.1068 80.6444C82.5999 76.7817 84.965 72.6802 87.2415 68.4135ZM80.1068 43.0779C84.0769 43.6214 87.9121 44.3001 91.6097 45.1164C90.3727 48.7923 88.9672 52.385 87.3871 55.8913C85.1333 51.4461 82.7136 47.1679 80.1068 43.0779ZM68.895 36.6712C64.3602 36.4933 59.7468 36.499 55.0624 36.6712C57.1132 33.9741 59.399 31.1566 61.9059 28.226C64.3491 30.8632 66.6638 33.7017 68.895 36.6712ZM58.4114 24.4402C54.4058 28.5069 50.9202 32.7323 47.9277 37.108C42.2478 37.625 36.5176 38.5727 30.7461 39.8746C23.9026 9.44275 36.5811 3.50062 58.4114 24.4402ZM27.5427 77.8779C-2.79201 68.7532 -1.33594 54.5323 27.2515 46.1356C29.0003 51.4422 31.1173 56.8315 33.5126 62.0068C31.1851 67.3589 29.1246 72.8561 27.5427 77.8779ZM31.3285 83.9934C36.4733 85.2553 41.9254 85.8611 47.6365 86.4687C51.0728 91.3183 54.6315 95.827 58.4114 99.7189C36.1821 121.026 23.79 113.285 31.3285 83.9934ZM61.9059 96.0788C59.2718 93.351 56.8124 90.2602 54.48 86.9055C59.679 87.0151 64.7004 87.0272 69.4775 86.9055C67.1639 90.1877 64.6371 93.2424 61.9059 96.0788ZM65.5461 99.7189C69.6019 95.3123 73.1774 90.8449 76.321 86.3231C81.6865 85.9283 87.1224 85.104 92.629 83.8478C100.236 115.025 86.4241 119.629 65.5461 99.7189ZM96.2691 77.5867C94.7094 72.5649 92.7398 67.3589 90.4448 62.0068C92.8066 56.8315 94.8361 51.5878 96.5603 46.2813C124.468 54.7264 126.701 68.2193 96.2691 77.5867Z" fill="#4DB6AC"/>
</g>
<defs>
<clipPath id="clip0_133_74">
<rect width="124" height="124" fill="white"/>
</clipPath>
</defs>
</svg>
