<svg width="124" height="124" viewBox="0 0 124 124" fill="none" xmlns="http://www.w3.org/2000/svg">
<path fill-rule="evenodd" clip-rule="evenodd" d="M82.035 81.5653C85.8687 81.1687 88.7771 77.8637 88.6449 73.8977C88.5127 69.9317 85.2077 66.7589 81.2418 66.7589H80.9774C76.8792 66.8911 73.7064 70.3283 73.8386 74.4265C73.9708 76.4095 74.764 78.1281 75.9538 79.3179C71.459 88.1753 64.5846 94.653 54.2731 100.073C47.2665 103.775 39.9955 105.097 32.7245 104.171C26.7756 103.378 22.1486 100.734 19.2402 96.3716C15.0098 89.8938 14.6132 82.8873 18.1826 75.8807C20.6944 70.8571 24.6604 67.1555 27.1722 65.3047C26.6434 63.5861 25.8502 60.6778 25.4536 58.5626C6.28464 72.4435 8.26764 91.2158 14.0844 100.073C18.447 106.683 27.3044 110.781 37.0871 110.781C39.7311 110.781 42.3751 110.517 45.0191 109.856C61.9406 106.551 74.764 96.5038 82.035 81.5653Z" fill="#2483FF"/>
<path fill-rule="evenodd" clip-rule="evenodd" d="M105.302 65.1725C95.2549 53.4068 80.4486 46.929 63.527 46.929H61.4118C60.2221 44.5494 57.7103 42.963 54.9341 42.963H54.6697C50.5715 43.0952 47.3987 46.5324 47.5309 50.6306C47.6631 54.5966 50.9681 57.7694 54.9341 57.7694H55.1985C58.1069 57.6372 60.6187 55.7864 61.6762 53.2746H64.0558C74.103 53.2746 83.6214 56.183 92.2143 61.8675C98.8243 66.2301 103.583 71.9147 106.227 78.7891C108.475 84.3415 108.343 89.7616 105.963 94.3886C102.261 101.395 96.0481 105.229 87.8517 105.229C82.5638 105.229 77.5402 103.643 74.8962 102.453C73.442 103.775 70.798 105.89 68.9472 107.212C74.6318 109.856 80.4486 111.31 86.001 111.31C98.6921 111.31 108.078 104.304 111.648 97.297C115.481 89.6294 115.217 76.4095 105.302 65.1725Z" fill="#2483FF"/>
<path fill-rule="evenodd" clip-rule="evenodd" d="M38.1447 83.8127C38.2769 87.7786 41.5819 90.9514 45.5479 90.9514H45.8123C49.9105 90.8192 53.0833 87.382 52.9511 83.2839C52.8189 79.3179 49.5139 76.1451 45.5479 76.1451H45.2835C45.0191 76.1451 44.6225 76.1451 44.3581 76.2773C38.9379 67.2877 36.6905 57.505 37.4837 46.929C38.0125 38.997 40.6565 32.1227 45.2835 26.4381C49.1173 21.5467 56.5205 19.1671 61.544 19.0349C75.5572 18.7705 81.5062 36.2208 81.9028 43.2274C83.6214 43.624 86.5298 44.5494 88.5127 45.2104C86.9264 23.7941 73.7064 12.6893 61.0153 12.6893C49.1173 12.6893 38.1447 21.2823 33.7822 33.9734C27.701 50.895 31.667 67.1555 39.0701 79.9789C38.4091 80.9043 38.0125 82.3585 38.1447 83.8127Z" fill="#2483FF"/>
</svg>
