<svg width="124" height="124" viewBox="0 0 124 124" fill="none" xmlns="http://www.w3.org/2000/svg">
<path d="M36.1374 66.1674C34.9566 68.1351 33.2171 69.7258 32.3039 72.0491C30.3962 76.1636 31.1343 85.0708 29.931 85.0861C28.5262 85.7597 26.3122 81.7145 25.368 79.3034C22.978 73.2051 22.534 63.3851 24.6369 56.3657C27.5488 47.1055 27.7305 47.5898 23.7245 43.2299C20.0206 37.824 18.2582 29.0548 15.8754 22.8414C12.2229 14.7157 3.61261 7.88686 8.20927 4.80623C9.86288 3.4203 15.4165 6.16757 19.5456 8.8902C22.4624 10.8135 24.3701 12.855 25.0021 12.8442C31.9688 12.6543 34.6934 12.957 45.9935 19.7058C56.5148 26.8405 65.117 36.997 71.0014 49.1126C72.4629 54.1882 79.5182 70.7188 84.3258 79.1076C85.5676 80.8884 90.3615 81.8437 92.5401 82.8322C97.7413 84.5793 98.752 85.4316 106.048 91.0665C107.344 92.0464 111.326 94.1949 111.524 95.9661C105.105 95.7792 100.202 96.4194 96.01 98.3182C94.8187 98.8579 92.919 98.8719 92.7246 100.475C93.7568 101.598 92.8184 103.232 98.2 108.513C103.675 113.424 106.32 113.828 112.986 117.727C119.373 122.153 119.456 123.528 120.834 124V123.804C119.478 120.603 119.557 121.059 117.184 118.511C108.581 106.966 102.266 107.758 99.6605 102.24C106.652 99.5488 110.276 100.508 116.819 98.1225V97.3382C112.38 90.2961 99.7005 79.8411 88.3268 76.1202C81.056 62.2512 78.0126 52.3875 74.2867 44.4074C66.456 30.2068 45.7734 6.78125 27.0099 8.33496C25.7844 7.78473 24.5093 6.17421 23.3594 5.39427C18.781 2.28791 7.03744 -4.46884 3.64635 4.41434C1.50517 10.0215 6.84634 15.4932 8.75657 18.3335C10.0976 20.3267 11.8142 22.5613 12.7722 24.8028C13.71 27.232 13.4414 29.0322 18.2484 40.8784C21.802 48.5626 22.4651 46.3078 23.1764 49.1124C22.0493 50.8063 21.9851 53.4358 21.3516 55.5818C16.2266 72.6562 24.2669 92.8327 32.1209 89.4979C36.1456 87.7464 34.7925 80.9705 36.4429 76.4526C38.7904 80.8503 39.5169 86.5417 50.1921 95.1834C52.0885 96.7215 54.1209 99.5217 56.5441 100.405C54.0354 98.6665 51.8799 96.0451 49.827 93.2227C46.5009 88.3728 43.5612 83.0644 40.8833 77.5385C36.4952 68.7903 37.4297 67.1314 36.1374 66.1674ZM30.0645 26.1483C28.8203 23.2096 28.3429 23.885 27.0254 22.436C25.7024 22.4098 24.7397 22.6221 23.7503 22.854C23.696 22.8888 23.7096 22.9601 23.7546 23.0482C24.3855 24.4407 25.6761 25.3365 26.4565 26.5361L28.2609 30.6043C29.6005 29.6442 30.0776 28.0706 30.0645 26.1483Z" fill="#39ADB5"/>
</svg>
