<svg width="124" height="124" viewBox="0 0 124 124" fill="none" xmlns="http://www.w3.org/2000/svg">
<path d="M34.875 53.0875C38.4917 38.6208 47.5333 31.3875 62 31.3875C83.7 31.3875 86.4125 47.6625 97.2625 50.375C104.496 52.1833 110.825 49.4708 116.25 42.2375C112.633 56.7042 103.592 63.9375 89.125 63.9375C67.425 63.9375 64.7125 47.6625 53.8625 44.95C46.6292 43.1417 40.3 45.8542 34.875 53.0875ZM7.75 85.6375C11.3667 71.1708 20.4083 63.9375 34.875 63.9375C56.575 63.9375 59.2875 80.2125 70.1375 82.925C77.3708 84.7333 83.7 82.0208 89.125 74.7875C85.5083 89.2542 76.4667 96.4875 62 96.4875C40.3 96.4875 37.5875 80.2125 26.7375 77.5C19.5042 75.6917 13.175 78.4042 7.75 85.6375Z" fill="#44A8B3"/>
</svg>
