<svg width="124" height="124" viewBox="0 0 124 124" fill="none" xmlns="http://www.w3.org/2000/svg">
<path fill-rule="evenodd" clip-rule="evenodd" d="M11.408 11.408V112.592H112.592V11.408H11.408ZM88.293 60.5542V60.5556C89.2633 60.5587 90.3659 60.6086 91.1953 60.6985C94.5728 61.0639 97.2031 62.5211 99.4408 65.2657C100.555 66.6329 100.936 67.2312 100.855 67.487C100.803 67.6521 100.038 68.1998 97.6074 69.8135C95.2195 71.3987 94.4501 71.8735 94.2715 71.8735C94.0904 71.8735 93.7131 71.4852 93.1691 70.7396C92.1215 69.3039 91.0519 68.6486 89.3983 68.4301C87.62 68.1946 86.025 68.7551 85.2438 69.8905C84.5761 70.8605 84.4752 72.4216 85.0059 73.5557C85.6208 74.8695 86.7338 75.5958 90.9991 77.4662C95.9184 79.6231 98.4113 81.0996 100.227 82.9318C102.182 84.905 103.173 87.1833 103.477 90.4058C103.626 91.9764 103.444 93.8381 102.995 95.3517C101.892 99.062 98.9177 101.779 94.5576 103.058C93.3524 103.411 92.2309 103.622 91.1215 103.703C89.4282 103.828 87.004 103.759 85.545 103.547C81.8538 103.009 77.6869 100.861 75.6092 98.4255C74.5892 97.2301 73.2871 95.2625 73.2871 94.9163C73.2871 94.7493 73.3698 94.6545 73.6978 94.446C74.6703 93.8282 80.2435 90.6422 80.3516 90.6422C80.417 90.6422 80.7081 90.9854 80.9983 91.4046C81.6558 92.3539 83.2724 93.9855 84.0943 94.5299C84.7657 94.9745 85.6242 95.3316 86.6435 95.5892C87.2273 95.7347 87.5363 95.7607 88.8101 95.7607C90.1115 95.7602 90.3785 95.7383 90.9607 95.5819C92.5007 95.1675 93.7029 94.3099 94.2122 93.2623C94.4355 92.8096 94.4399 92.7531 94.4399 91.6551V90.5168L94.1662 89.9739C93.5032 88.6578 92.0747 87.7549 87.5583 85.7985C85.4836 84.8999 82.9427 83.6328 81.9507 83.0023C79.687 81.5637 78.1179 79.919 77.0882 77.9057C76.064 75.9036 75.9112 75.1583 75.9088 72.1479C75.9062 69.7913 75.9023 69.8202 76.3902 68.316C76.8329 66.9511 77.7391 65.4263 78.7394 64.3632C80.7361 62.2407 83.6531 60.8768 86.7761 60.6055C87.1756 60.5677 87.7106 60.5529 88.2927 60.5546L88.293 60.5542ZM61.4197 61.0197H61.4207C67.4354 61.0227 70.8834 61.0435 70.9387 61.0783C71.0429 61.1428 71.0559 61.6662 71.0559 65.0071V68.8613L65.054 68.8831L59.0522 68.9049V85.9457C59.0522 95.3184 59.0332 103.042 59.0071 103.111C58.9647 103.225 58.5031 103.234 54.5979 103.234H50.2361L50.1911 103.058C50.1619 102.961 50.1407 95.2368 50.1402 85.8929L50.1388 68.9039L44.1369 68.8826L38.1351 68.8608V65.0523C38.1351 62.0316 38.1559 61.2226 38.2363 61.1423C38.3189 61.0571 41.3819 61.0352 54.58 61.0222C57.1247 61.0196 59.4146 61.0184 61.4197 61.0197Z" fill="#0288D1"/>
</svg>
