<svg width="124" height="124" viewBox="0 0 124 124" fill="none" xmlns="http://www.w3.org/2000/svg">
<g clip-path="url(#clip0_133_54)">
<path d="M119.614 14.1135L86.0197 20.2367L91.8573 0L45.2382 9.13483L44.512 21.3993L3.66797 14.0987C0.854724 13.935 -0.78432 15.955 0.377409 18.7599L59.4847 122.412C60.7568 124.489 63.686 124.57 64.9703 122.412L122.928 18.7499C124.236 16.4064 122.232 13.6595 119.614 14.1135ZM62.2156 119.57L4.32759 18.0564L44.287 25.1989L42.4033 57.0139L58.7827 53.2338L54.2156 75.5984L66.6577 71.8182L60.4832 101.703C60.1754 103.658 62.7212 104.697 63.9803 101.9L100.362 29.2943L82.4073 32.7595L84.8498 24.2921L118.977 18.0719L62.2156 119.57Z" fill="#FDD835"/>
</g>
<defs>
<clipPath id="clip0_133_54">
<rect width="124" height="124" fill="white"/>
</clipPath>
</defs>
</svg>
