<svg width="124" height="124" viewBox="0 0 124 124" fill="none" xmlns="http://www.w3.org/2000/svg">
<path d="M90.8063 43.0275L63.6481 82.2947C63.3601 82.711 62.9437 83.0229 62.462 83.183C61.9803 83.343 61.4596 83.3415 60.9788 83.1807C60.4981 83.0191 60.0836 82.7058 59.7982 82.2887C59.5128 81.8708 59.3721 81.3718 59.3975 80.8676L60.4844 59.188L42.9373 55.4666C42.5623 55.3872 42.2129 55.2168 41.92 54.9707C41.6272 54.7247 41.3998 54.4104 41.2582 54.0557C41.1167 53.7011 41.0652 53.3171 41.1083 52.9376C41.1514 52.5583 41.2878 52.1951 41.5055 51.8805L68.664 12.6132C68.952 12.1966 69.3684 11.8848 69.8502 11.725C70.332 11.5651 70.8527 11.566 71.3335 11.7275C71.8142 11.8889 72.2288 12.2021 72.5141 12.6197C72.7995 13.0371 72.9402 13.5361 72.9147 14.0408L71.8278 35.7206L89.3747 39.4416C89.7497 39.5211 90.0991 39.6914 90.3922 39.9375C90.6853 40.1836 90.9123 40.4979 91.0536 40.8525C91.1956 41.2072 91.2467 41.5912 91.2039 41.9706C91.161 42.35 91.0242 42.7128 90.8063 43.0275Z" fill="#FCC72B"/>
<path d="M62.3657 115.24C61.6433 115.24 60.928 115.099 60.2606 114.823C59.5933 114.546 58.9871 114.14 58.4771 113.629L32.8155 87.9694C31.789 86.9375 31.2135 85.5405 31.2154 84.0848C31.2174 82.6291 31.7965 81.2328 32.8259 80.204C33.8552 79.1744 35.2509 78.595 36.7066 78.5927C38.1625 78.5912 39.5597 79.1661 40.5919 80.1927L62.3657 101.964L109.8 54.5319C110.834 53.5145 112.228 52.947 113.679 52.9529C115.13 52.9588 116.519 53.5376 117.545 54.5634C118.57 55.5892 119.15 56.9787 119.156 58.4293C119.161 59.88 118.594 61.2742 117.576 62.3082L66.2534 113.629C65.7434 114.141 65.1374 114.546 64.4702 114.823C63.8031 115.099 63.0878 115.24 62.3657 115.24Z" fill="#729B1B"/>
<path d="M62.3436 115.24C63.0659 115.24 63.7813 115.099 64.4487 114.823C65.116 114.546 65.7221 114.14 66.2322 113.629L91.8938 87.9694C92.9203 86.9375 93.496 85.5405 93.4937 84.0848C93.4922 82.6291 92.9128 81.2328 91.8832 80.204C90.8537 79.1744 89.4581 78.595 88.0024 78.5927C86.5467 78.5912 85.1497 79.1661 84.1171 80.1927L62.3436 101.964L14.9092 54.5319C13.8751 53.5145 12.4809 52.947 11.0304 52.9529C9.57971 52.9588 8.19016 53.5376 7.16442 54.5634C6.13866 55.5892 5.55979 56.9787 5.55388 58.4293C5.54797 59.88 6.11552 61.2742 7.13289 62.3082L58.4558 113.629C58.9659 114.141 59.5719 114.546 60.239 114.823C60.9062 115.099 61.6215 115.24 62.3436 115.24Z" fill="#729B1B"/>
</svg>
