<svg width="16" height="16" viewBox="0 0 16 16" fill="none" xmlns="http://www.w3.org/2000/svg">
<path d="M7.51098 2.47901C7.51098 2.47901 8.09998 0.700006 8.63698 1.04501C8.93366 1.50239 9.189 1.9853 9.39997 2.48801C9.60697 2.33816 9.85544 2.25638 10.111 2.25401C10.4669 3.22098 10.5589 4.26534 10.3773 5.27963C10.1958 6.29393 9.74727 7.24155 9.07798 8.02501C9.71286 8.57782 10.1829 9.29513 10.4362 10.0979C10.6896 10.9007 10.7165 11.7579 10.514 12.575C11.892 12.575 12.601 11.233 14.359 11.15C14.4958 11.1268 14.6363 11.157 14.7515 11.2345C14.8666 11.312 14.9476 11.4307 14.9777 11.5662C15.0077 11.7017 14.9845 11.8436 14.9129 11.9625C14.8413 12.0814 14.7268 12.1682 14.593 12.205C13.371 12.378 12.166 13.743 9.70298 14.437C9.38498 14.921 7.48698 14.867 5.99298 15.001C4.41198 15.018 4.81998 13.785 5.39298 13.576C5.23223 13.4579 5.07894 13.33 4.93398 13.193C4.53598 15.3 3.45698 14.658 2.79998 14.477C2.29098 14.206 2.83598 13.571 2.83598 13.571C2.33598 13.784 1.94998 12.846 2.00798 11.925C2.13584 11.3614 2.44198 10.8539 2.88098 10.478C2.79358 9.6953 2.92555 8.90371 3.26214 8.19169C3.59873 7.47967 4.12667 6.87526 4.78698 6.44601C4.42689 6.11902 4.19687 5.67309 4.13919 5.19012C4.08151 4.70716 4.20003 4.2196 4.47298 3.81701C5.45798 3.54301 5.64898 2.37401 7.51098 2.47901Z" fill="#1E9CEF"/>
</svg>
